<svg class="rich-terminal" viewBox="0 0 994 635.5999999999999" xmlns="http://www.w3.org/2000/svg">
    <!-- Generated with Rich https://www.textualize.io -->
    <style>

    @font-face {
        font-family: "Fira Code";
        src: local("FiraCode-Regular"),
                url("https://cdnjs.cloudflare.com/ajax/libs/firacode/6.2.0/woff2/FiraCode-Regular.woff2") format("woff2"),
                url("https://cdnjs.cloudflare.com/ajax/libs/firacode/6.2.0/woff/FiraCode-Regular.woff") format("woff");
        font-style: normal;
        font-weight: 400;
    }
    @font-face {
        font-family: "Fira Code";
        src: local("FiraCode-Bold"),
                url("https://cdnjs.cloudflare.com/ajax/libs/firacode/6.2.0/woff2/FiraCode-Bold.woff2") format("woff2"),
                url("https://cdnjs.cloudflare.com/ajax/libs/firacode/6.2.0/woff/FiraCode-Bold.woff") format("woff");
        font-style: bold;
        font-weight: 700;
    }

    .terminal-1447567526-matrix {
        font-family: Fira Code, monospace;
        font-size: 20px;
        line-height: 24.4px;
        font-variant-east-asian: full-width;
    }

    .terminal-1447567526-title {
        font-size: 18px;
        font-weight: bold;
        font-family: arial;
    }

    .terminal-1447567526-r1 { fill: #c5c8c6 }
.terminal-1447567526-r2 { fill: #2a2a2c }
.terminal-1447567526-r3 { fill: #c0c0c0 }
.terminal-1447567526-r4 { fill: #151516 }
.terminal-1447567526-r5 { fill: #007acc }
.terminal-1447567526-r6 { fill: #000000 }
.terminal-1447567526-r7 { fill: #444446 }
.terminal-1447567526-r8 { fill: #ffa62b;font-weight: bold }
.terminal-1447567526-r9 { fill: #e0e0e0 }
    </style>

    <defs>
    <clipPath id="terminal-1447567526-clip-terminal">
      <rect x="0" y="0" width="975.0" height="584.5999999999999" />
    </clipPath>
    <clipPath id="terminal-1447567526-line-0">
    <rect x="0" y="1.5" width="976" height="24.65"/>
            </clipPath>
<clipPath id="terminal-1447567526-line-1">
    <rect x="0" y="25.9" width="976" height="24.65"/>
            </clipPath>
<clipPath id="terminal-1447567526-line-2">
    <rect x="0" y="50.3" width="976" height="24.65"/>
            </clipPath>
<clipPath id="terminal-1447567526-line-3">
    <rect x="0" y="74.7" width="976" height="24.65"/>
            </clipPath>
<clipPath id="terminal-1447567526-line-4">
    <rect x="0" y="99.1" width="976" height="24.65"/>
            </clipPath>
<clipPath id="terminal-1447567526-line-5">
    <rect x="0" y="123.5" width="976" height="24.65"/>
            </clipPath>
<clipPath id="terminal-1447567526-line-6">
    <rect x="0" y="147.9" width="976" height="24.65"/>
            </clipPath>
<clipPath id="terminal-1447567526-line-7">
    <rect x="0" y="172.3" width="976" height="24.65"/>
            </clipPath>
<clipPath id="terminal-1447567526-line-8">
    <rect x="0" y="196.7" width="976" height="24.65"/>
            </clipPath>
<clipPath id="terminal-1447567526-line-9">
    <rect x="0" y="221.1" width="976" height="24.65"/>
            </clipPath>
<clipPath id="terminal-1447567526-line-10">
    <rect x="0" y="245.5" width="976" height="24.65"/>
            </clipPath>
<clipPath id="terminal-1447567526-line-11">
    <rect x="0" y="269.9" width="976" height="24.65"/>
            </clipPath>
<clipPath id="terminal-1447567526-line-12">
    <rect x="0" y="294.3" width="976" height="24.65"/>
            </clipPath>
<clipPath id="terminal-1447567526-line-13">
    <rect x="0" y="318.7" width="976" height="24.65"/>
            </clipPath>
<clipPath id="terminal-1447567526-line-14">
    <rect x="0" y="343.1" width="976" height="24.65"/>
            </clipPath>
<clipPath id="terminal-1447567526-line-15">
    <rect x="0" y="367.5" width="976" height="24.65"/>
            </clipPath>
<clipPath id="terminal-1447567526-line-16">
    <rect x="0" y="391.9" width="976" height="24.65"/>
            </clipPath>
<clipPath id="terminal-1447567526-line-17">
    <rect x="0" y="416.3" width="976" height="24.65"/>
            </clipPath>
<clipPath id="terminal-1447567526-line-18">
    <rect x="0" y="440.7" width="976" height="24.65"/>
            </clipPath>
<clipPath id="terminal-1447567526-line-19">
    <rect x="0" y="465.1" width="976" height="24.65"/>
            </clipPath>
<clipPath id="terminal-1447567526-line-20">
    <rect x="0" y="489.5" width="976" height="24.65"/>
            </clipPath>
<clipPath id="terminal-1447567526-line-21">
    <rect x="0" y="513.9" width="976" height="24.65"/>
            </clipPath>
<clipPath id="terminal-1447567526-line-22">
    <rect x="0" y="538.3" width="976" height="24.65"/>
            </clipPath>
    </defs>

    <rect fill="#292929" stroke="rgba(255,255,255,0.35)" stroke-width="1" x="1" y="1" width="992" height="633.6" rx="8"/><text class="terminal-1447567526-title" fill="#c5c8c6" text-anchor="middle" x="496" y="27">StacksOrbit</text>
            <g transform="translate(26,22)">
            <circle cx="0" cy="0" r="7" fill="#ff5f57"/>
            <circle cx="22" cy="0" r="7" fill="#febc2e"/>
            <circle cx="44" cy="0" r="7" fill="#28c840"/>
            </g>

    <g transform="translate(9, 41)" clip-path="url(#terminal-1447567526-clip-terminal)">
    <rect fill="#0c0c0d" x="0" y="1.5" width="976" height="24.65" shape-rendering="crispEdges"/><rect fill="#0c0c0d" x="0" y="25.9" width="12.2" height="24.65" shape-rendering="crispEdges"/><rect fill="#1e1e20" x="12.2" y="25.9" width="951.6" height="24.65" shape-rendering="crispEdges"/><rect fill="#0c0c0d" x="963.8" y="25.9" width="12.2" height="24.65" shape-rendering="crispEdges"/><rect fill="#0c0c0d" x="0" y="50.3" width="12.2" height="24.65" shape-rendering="crispEdges"/><rect fill="#1e1e20" x="12.2" y="50.3" width="951.6" height="24.65" shape-rendering="crispEdges"/><rect fill="#0c0c0d" x="963.8" y="50.3" width="12.2" height="24.65" shape-rendering="crispEdges"/><rect fill="#0c0c0d" x="0" y="74.7" width="12.2" height="24.65" shape-rendering="crispEdges"/><rect fill="#151516" x="12.2" y="74.7" width="12.2" height="24.65" shape-rendering="crispEdges"/><rect fill="#151516" x="24.4" y="74.7" width="927.2" height="24.65" shape-rendering="crispEdges"/><rect fill="#151516" x="951.6" y="74.7" width="12.2" height="24.65" shape-rendering="crispEdges"/><rect fill="#0c0c0d" x="963.8" y="74.7" width="12.2" height="24.65" shape-rendering="crispEdges"/><rect fill="#0c0c0d" x="0" y="99.1" width="12.2" height="24.65" shape-rendering="crispEdges"/><rect fill="#151516" x="12.2" y="99.1" width="12.2" height="24.65" shape-rendering="crispEdges"/><rect fill="#151516" x="24.4" y="99.1" width="927.2" height="24.65" shape-rendering="crispEdges"/><rect fill="#151516" x="951.6" y="99.1" width="12.2" height="24.65" shape-rendering="crispEdges"/><rect fill="#0c0c0d" x="963.8" y="99.1" width="12.2" height="24.65" shape-rendering="crispEdges"/><rect fill="#0c0c0d" x="0" y="123.5" width="12.2" height="24.65" shape-rendering="crispEdges"/><rect fill="#151516" x="12.2" y="123.5" width="12.2" height="24.65" shape-rendering="crispEdges"/><rect fill="#151516" x="24.4" y="123.5" width="12.2" height="24.65" shape-rendering="crispEdges"/><rect fill="#1a1a1b" x="36.6" y="123.5" width="24.4" height="24.65" shape-rendering="crispEdges"/><rect fill="#1a1a1b" x="61" y="123.5" width="12.2" height="24.65" shape-rendering="crispEdges"/><rect fill="#1a1a1b" x="73.2" y="123.5" width="12.2" height="24.65" shape-rendering="crispEdges"/><rect fill="#1a1a1b" x="85.4" y="123.5" width="195.2" height="24.65" shape-rendering="crispEdges"/><rect fill="#1a1a1b" x="280.6" y="123.5" width="12.2" height="24.65" shape-rendering="crispEdges"/><rect fill="#1a1a1b" x="292.8" y="123.5" width="12.2" height="24.65" shape-rendering="crispEdges"/><rect fill="#1a1a1b" x="305" y="123.5" width="231.8" height="24.65" shape-rendering="crispEdges"/><rect fill="#1a1a1b" x="536.8" y="123.5" width="12.2" height="24.65" shape-rendering="crispEdges"/><rect fill="#1a1a1b" x="549" y="123.5" width="12.2" height="24.65" shape-rendering="crispEdges"/><rect fill="#1a1a1b" x="561.2" y="123.5" width="158.6" height="24.65" shape-rendering="crispEdges"/><rect fill="#1a1a1b" x="719.8" y="123.5" width="12.2" height="24.65" shape-rendering="crispEdges"/><rect fill="#1a1a1b" x="732" y="123.5" width="12.2" height="24.65" shape-rendering="crispEdges"/><rect fill="#1a1a1b" x="744.2" y="123.5" width="183" height="24.65" shape-rendering="crispEdges"/><rect fill="#1a1a1b" x="927.2" y="123.5" width="12.2" height="24.65" shape-rendering="crispEdges"/><rect fill="#151516" x="939.4" y="123.5" width="12.2" height="24.65" shape-rendering="crispEdges"/><rect fill="#151516" x="951.6" y="123.5" width="12.2" height="24.65" shape-rendering="crispEdges"/><rect fill="#0c0c0d" x="963.8" y="123.5" width="12.2" height="24.65" shape-rendering="crispEdges"/><rect fill="#0c0c0d" x="0" y="147.9" width="12.2" height="24.65" shape-rendering="crispEdges"/><rect fill="#151516" x="12.2" y="147.9" width="12.2" height="24.65" shape-rendering="crispEdges"/><rect fill="#151516" x="24.4" y="147.9" width="12.2" height="24.65" shape-rendering="crispEdges"/><rect fill="#1a1a1b" x="36.6" y="147.9" width="24.4" height="24.65" shape-rendering="crispEdges"/><rect fill="#1a1a1b" x="61" y="147.9" width="12.2" height="24.65" shape-rendering="crispEdges"/><rect fill="#1a1a1b" x="73.2" y="147.9" width="12.2" height="24.65" shape-rendering="crispEdges"/><rect fill="#1a1a1b" x="85.4" y="147.9" width="195.2" height="24.65" shape-rendering="crispEdges"/><rect fill="#1a1a1b" x="280.6" y="147.9" width="12.2" height="24.65" shape-rendering="crispEdges"/><rect fill="#1a1a1b" x="292.8" y="147.9" width="12.2" height="24.65" shape-rendering="crispEdges"/><rect fill="#1a1a1b" x="305" y="147.9" width="231.8" height="24.65" shape-rendering="crispEdges"/><rect fill="#1a1a1b" x="536.8" y="147.9" width="12.2" height="24.65" shape-rendering="crispEdges"/><rect fill="#1a1a1b" x="549" y="147.9" width="12.2" height="24.65" shape-rendering="crispEdges"/><rect fill="#1a1a1b" x="561.2" y="147.9" width="158.6" height="24.65" shape-rendering="crispEdges"/><rect fill="#1a1a1b" x="719.8" y="147.9" width="12.2" height="24.65" shape-rendering="crispEdges"/><rect fill="#1a1a1b" x="732" y="147.9" width="12.2" height="24.65" shape-rendering="crispEdges"/><rect fill="#1a1a1b" x="744.2" y="147.9" width="183" height="24.65" shape-rendering="crispEdges"/><rect fill="#1a1a1b" x="927.2" y="147.9" width="12.2" height="24.65" shape-rendering="crispEdges"/><rect fill="#151516" x="939.4" y="147.9" width="12.2" height="24.65" shape-rendering="crispEdges"/><rect fill="#151516" x="951.6" y="147.9" width="12.2" height="24.65" shape-rendering="crispEdges"/><rect fill="#0c0c0d" x="963.8" y="147.9" width="12.2" height="24.65" shape-rendering="crispEdges"/><rect fill="#0c0c0d" x="0" y="172.3" width="12.2" height="24.65" shape-rendering="crispEdges"/><rect fill="#151516" x="12.2" y="172.3" width="12.2" height="24.65" shape-rendering="crispEdges"/><rect fill="#151516" x="24.4" y="172.3" width="12.2" height="24.65" shape-rendering="crispEdges"/><rect fill="#151516" x="36.6" y="172.3" width="902.8" height="24.65" shape-rendering="crispEdges"/><rect fill="#151516" x="939.4" y="172.3" width="12.2" height="24.65" shape-rendering="crispEdges"/><rect fill="#151516" x="951.6" y="172.3" width="12.2" height="24.65" shape-rendering="crispEdges"/><rect fill="#0c0c0d" x="963.8" y="172.3" width="12.2" height="24.65" shape-rendering="crispEdges"/><rect fill="#0c0c0d" x="0" y="196.7" width="12.2" height="24.65" shape-rendering="crispEdges"/><rect fill="#151516" x="12.2" y="196.7" width="12.2" height="24.65" shape-rendering="crispEdges"/><rect fill="#151516" x="24.4" y="196.7" width="12.2" height="24.65" shape-rendering="crispEdges"/><rect fill="#151516" x="36.6" y="196.7" width="12.2" height="24.65" shape-rendering="crispEdges"/><rect fill="#151516" x="48.8" y="196.7" width="146.4" height="24.65" shape-rendering="crispEdges"/><rect fill="#151516" x="195.2" y="196.7" width="707.6" height="24.65" shape-rendering="crispEdges"/><rect fill="#003054" x="902.8" y="196.7" width="24.4" height="24.65" shape-rendering="crispEdges"/><rect fill="#151516" x="927.2" y="196.7" width="12.2" height="24.65" shape-rendering="crispEdges"/><rect fill="#151516" x="939.4" y="196.7" width="12.2" height="24.65" shape-rendering="crispEdges"/><rect fill="#151516" x="951.6" y="196.7" width="12.2" height="24.65" shape-rendering="crispEdges"/><rect fill="#0c0c0d" x="963.8" y="196.7" width="12.2" height="24.65" shape-rendering="crispEdges"/><rect fill="#0c0c0d" x="0" y="221.1" width="12.2" height="24.65" shape-rendering="crispEdges"/><rect fill="#151516" x="12.2" y="221.1" width="12.2" height="24.65" shape-rendering="crispEdges"/><rect fill="#151516" x="24.4" y="221.1" width="12.2" height="24.65" shape-rendering="crispEdges"/><rect fill="#151516" x="36.6" y="221.1" width="12.2" height="24.65" shape-rendering="crispEdges"/><rect fill="#2e2e30" x="48.8" y="221.1" width="12.2" height="24.65" shape-rendering="crispEdges"/><rect fill="#2e2e30" x="61" y="221.1" width="829.6" height="24.65" shape-rendering="crispEdges"/><rect fill="#2e2e30" x="890.6" y="221.1" width="12.2" height="24.65" shape-rendering="crispEdges"/><rect fill="#003054" x="902.8" y="221.1" width="24.4" height="24.65" shape-rendering="crispEdges"/><rect fill="#151516" x="927.2" y="221.1" width="12.2" height="24.65" shape-rendering="crispEdges"/><rect fill="#151516" x="939.4" y="221.1" width="12.2" height="24.65" shape-rendering="crispEdges"/><rect fill="#151516" x="951.6" y="221.1" width="12.2" height="24.65" shape-rendering="crispEdges"/><rect fill="#0c0c0d" x="963.8" y="221.1" width="12.2" height="24.65" shape-rendering="crispEdges"/><rect fill="#0c0c0d" x="0" y="245.5" width="12.2" height="24.65" shape-rendering="crispEdges"/><rect fill="#151516" x="12.2" y="245.5" width="12.2" height="24.65" shape-rendering="crispEdges"/><rect fill="#151516" x="24.4" y="245.5" width="12.2" height="24.65" shape-rendering="crispEdges"/><rect fill="#151516" x="36.6" y="245.5" width="12.2" height="24.65" shape-rendering="crispEdges"/><rect fill="#2e2e30" x="48.8" y="245.5" width="12.2" height="24.65" shape-rendering="crispEdges"/><rect fill="#2e2e30" x="61" y="245.5" width="829.6" height="24.65" shape-rendering="crispEdges"/><rect fill="#2e2e30" x="890.6" y="245.5" width="12.2" height="24.65" shape-rendering="crispEdges"/><rect fill="#003054" x="902.8" y="245.5" width="24.4" height="24.65" shape-rendering="crispEdges"/><rect fill="#151516" x="927.2" y="245.5" width="12.2" height="24.65" shape-rendering="crispEdges"/><rect fill="#151516" x="939.4" y="245.5" width="12.2" height="24.65" shape-rendering="crispEdges"/><rect fill="#151516" x="951.6" y="245.5" width="12.2" height="24.65" shape-rendering="crispEdges"/><rect fill="#0c0c0d" x="963.8" y="245.5" width="12.2" height="24.65" shape-rendering="crispEdges"/><rect fill="#0c0c0d" x="0" y="269.9" width="12.2" height="24.65" shape-rendering="crispEdges"/><rect fill="#151516" x="12.2" y="269.9" width="12.2" height="24.65" shape-rendering="crispEdges"/><rect fill="#151516" x="24.4" y="269.9" width="12.2" height="24.65" shape-rendering="crispEdges"/><rect fill="#151516" x="36.6" y="269.9" width="12.2" height="24.65" shape-rendering="crispEdges"/><rect fill="#2e2e30" x="48.8" y="269.9" width="12.2" height="24.65" shape-rendering="crispEdges"/><rect fill="#2e2e30" x="61" y="269.9" width="829.6" height="24.65" shape-rendering="crispEdges"/><rect fill="#2e2e30" x="890.6" y="269.9" width="12.2" height="24.65" shape-rendering="crispEdges"/><rect fill="#003054" x="902.8" y="269.9" width="24.4" height="24.65" shape-rendering="crispEdges"/><rect fill="#151516" x="927.2" y="269.9" width="12.2" height="24.65" shape-rendering="crispEdges"/><rect fill="#151516" x="939.4" y="269.9" width="12.2" height="24.65" shape-rendering="crispEdges"/><rect fill="#151516" x="951.6" y="269.9" width="12.2" height="24.65" shape-rendering="crispEdges"/><rect fill="#0c0c0d" x="963.8" y="269.9" width="12.2" height="24.65" shape-rendering="crispEdges"/><rect fill="#0c0c0d" x="0" y="294.3" width="12.2" height="24.65" shape-rendering="crispEdges"/><rect fill="#151516" x="12.2" y="294.3" width="12.2" height="24.65" shape-rendering="crispEdges"/><rect fill="#151516" x="24.4" y="294.3" width="12.2" height="24.65" shape-rendering="crispEdges"/><rect fill="#151516" x="36.6" y="294.3" width="12.2" height="24.65" shape-rendering="crispEdges"/><rect fill="#2e2e30" x="48.8" y="294.3" width="12.2" height="24.65" shape-rendering="crispEdges"/><rect fill="#2e2e30" x="61" y="294.3" width="829.6" height="24.65" shape-rendering="crispEdges"/><rect fill="#2e2e30" x="890.6" y="294.3" width="12.2" height="24.65" shape-rendering="crispEdges"/><rect fill="#003054" x="902.8" y="294.3" width="24.4" height="24.65" shape-rendering="crispEdges"/><rect fill="#151516" x="927.2" y="294.3" width="12.2" height="24.65" shape-rendering="crispEdges"/><rect fill="#151516" x="939.4" y="294.3" width="12.2" height="24.65" shape-rendering="crispEdges"/><rect fill="#151516" x="951.6" y="294.3" width="12.2" height="24.65" shape-rendering="crispEdges"/><rect fill="#0c0c0d" x="963.8" y="294.3" width="12.2" height="24.65" shape-rendering="crispEdges"/><rect fill="#0c0c0d" x="0" y="318.7" width="12.2" height="24.65" shape-rendering="crispEdges"/><rect fill="#151516" x="12.2" y="318.7" width="12.2" height="24.65" shape-rendering="crispEdges"/><rect fill="#151516" x="24.4" y="318.7" width="12.2" height="24.65" shape-rendering="crispEdges"/><rect fill="#151516" x="36.6" y="318.7" width="12.2" height="24.65" shape-rendering="crispEdges"/><rect fill="#151516" x="48.8" y="318.7" width="183" height="24.65" shape-rendering="crispEdges"/><rect fill="#151516" x="231.8" y="318.7" width="671" height="24.65" shape-rendering="crispEdges"/><rect fill="#003054" x="902.8" y="318.7" width="24.4" height="24.65" shape-rendering="crispEdges"/><rect fill="#151516" x="927.2" y="318.7" width="12.2" height="24.65" shape-rendering="crispEdges"/><rect fill="#151516" x="939.4" y="318.7" width="12.2" height="24.65" shape-rendering="crispEdges"/><rect fill="#151516" x="951.6" y="318.7" width="12.2" height="24.65" shape-rendering="crispEdges"/><rect fill="#0c0c0d" x="963.8" y="318.7" width="12.2" height="24.65" shape-rendering="crispEdges"/><rect fill="#0c0c0d" x="0" y="343.1" width="12.2" height="24.65" shape-rendering="crispEdges"/><rect fill="#151516" x="12.2" y="343.1" width="12.2" height="24.65" shape-rendering="crispEdges"/><rect fill="#151516" x="24.4" y="343.1" width="12.2" height="24.65" shape-rendering="crispEdges"/><rect fill="#151516" x="36.6" y="343.1" width="12.2" height="24.65" shape-rendering="crispEdges"/><rect fill="#252527" x="48.8" y="343.1" width="12.2" height="24.65" shape-rendering="crispEdges"/><rect fill="#252527" x="61" y="343.1" width="829.6" height="24.65" shape-rendering="crispEdges"/><rect fill="#252527" x="890.6" y="343.1" width="12.2" height="24.65" shape-rendering="crispEdges"/><rect fill="#003054" x="902.8" y="343.1" width="24.4" height="24.65" shape-rendering="crispEdges"/><rect fill="#151516" x="927.2" y="343.1" width="12.2" height="24.65" shape-rendering="crispEdges"/><rect fill="#151516" x="939.4" y="343.1" width="12.2" height="24.65" shape-rendering="crispEdges"/><rect fill="#151516" x="951.6" y="343.1" width="12.2" height="24.65" shape-rendering="crispEdges"/><rect fill="#0c0c0d" x="963.8" y="343.1" width="12.2" height="24.65" shape-rendering="crispEdges"/><rect fill="#0c0c0d" x="0" y="367.5" width="12.2" height="24.65" shape-rendering="crispEdges"/><rect fill="#151516" x="12.2" y="367.5" width="12.2" height="24.65" shape-rendering="crispEdges"/><rect fill="#151516" x="24.4" y="367.5" width="12.2" height="24.65" shape-rendering="crispEdges"/><rect fill="#151516" x="36.6" y="367.5" width="12.2" height="24.65" shape-rendering="crispEdges"/><rect fill="#252527" x="48.8" y="367.5" width="12.2" height="24.65" shape-rendering="crispEdges"/><rect fill="#252527" x="61" y="367.5" width="829.6" height="24.65" shape-rendering="crispEdges"/><rect fill="#252527" x="890.6" y="367.5" width="12.2" height="24.65" shape-rendering="crispEdges"/><rect fill="#003054" x="902.8" y="367.5" width="24.4" height="24.65" shape-rendering="crispEdges"/><rect fill="#151516" x="927.2" y="367.5" width="12.2" height="24.65" shape-rendering="crispEdges"/><rect fill="#151516" x="939.4" y="367.5" width="12.2" height="24.65" shape-rendering="crispEdges"/><rect fill="#151516" x="951.6" y="367.5" width="12.2" height="24.65" shape-rendering="crispEdges"/><rect fill="#0c0c0d" x="963.8" y="367.5" width="12.2" height="24.65" shape-rendering="crispEdges"/><rect fill="#0c0c0d" x="0" y="391.9" width="12.2" height="24.65" shape-rendering="crispEdges"/><rect fill="#151516" x="12.2" y="391.9" width="12.2" height="24.65" shape-rendering="crispEdges"/><rect fill="#151516" x="24.4" y="391.9" width="12.2" height="24.65" shape-rendering="crispEdges"/><rect fill="#151516" x="36.6" y="391.9" width="12.2" height="24.65" shape-rendering="crispEdges"/><rect fill="#252527" x="48.8" y="391.9" width="12.2" height="24.65" shape-rendering="crispEdges"/><rect fill="#252527" x="61" y="391.9" width="829.6" height="24.65" shape-rendering="crispEdges"/><rect fill="#252527" x="890.6" y="391.9" width="12.2" height="24.65" shape-rendering="crispEdges"/><rect fill="#003054" x="902.8" y="391.9" width="24.4" height="24.65" shape-rendering="crispEdges"/><rect fill="#151516" x="927.2" y="391.9" width="12.2" height="24.65" shape-rendering="crispEdges"/><rect fill="#151516" x="939.4" y="391.9" width="12.2" height="24.65" shape-rendering="crispEdges"/><rect fill="#151516" x="951.6" y="391.9" width="12.2" height="24.65" shape-rendering="crispEdges"/><rect fill="#0c0c0d" x="963.8" y="391.9" width="12.2" height="24.65" shape-rendering="crispEdges"/><rect fill="#0c0c0d" x="0" y="416.3" width="12.2" height="24.65" shape-rendering="crispEdges"/><rect fill="#151516" x="12.2" y="416.3" width="12.2" height="24.65" shape-rendering="crispEdges"/><rect fill="#151516" x="24.4" y="416.3" width="12.2" height="24.65" shape-rendering="crispEdges"/><rect fill="#151516" x="36.6" y="416.3" width="12.2" height="24.65" shape-rendering="crispEdges"/><rect fill="#252527" x="48.8" y="416.3" width="12.2" height="24.65" shape-rendering="crispEdges"/><rect fill="#252527" x="61" y="416.3" width="829.6" height="24.65" shape-rendering="crispEdges"/><rect fill="#252527" x="890.6" y="416.3" width="12.2" height="24.65" shape-rendering="crispEdges"/><rect fill="#000000" x="902.8" y="416.3" width="24.4" height="24.65" shape-rendering="crispEdges"/><rect fill="#151516" x="927.2" y="416.3" width="12.2" height="24.65" shape-rendering="crispEdges"/><rect fill="#151516" x="939.4" y="416.3" width="12.2" height="24.65" shape-rendering="crispEdges"/><rect fill="#151516" x="951.6" y="416.3" width="12.2" height="24.65" shape-rendering="crispEdges"/><rect fill="#0c0c0d" x="963.8" y="416.3" width="12.2" height="24.65" shape-rendering="crispEdges"/><rect fill="#0c0c0d" x="0" y="440.7" width="12.2" height="24.65" shape-rendering="crispEdges"/><rect fill="#151516" x="12.2" y="440.7" width="12.2" height="24.65" shape-rendering="crispEdges"/><rect fill="#151516" x="24.4" y="440.7" width="12.2" height="24.65" shape-rendering="crispEdges"/><rect fill="#151516" x="36.6" y="440.7" width="12.2" height="24.65" shape-rendering="crispEdges"/><rect fill="#151516" x="48.8" y="440.7" width="12.2" height="24.65" shape-rendering="crispEdges"/><rect fill="#252527" x="61" y="440.7" width="12.2" height="24.65" shape-rendering="crispEdges"/><rect fill="#252527" x="73.2" y="440.7" width="170.8" height="24.65" shape-rendering="crispEdges"/><rect fill="#252527" x="244" y="440.7" width="12.2" height="24.65" shape-rendering="crispEdges"/><rect fill="#151516" x="256.2" y="440.7" width="646.6" height="24.65" shape-rendering="crispEdges"/><rect fill="#000000" x="902.8" y="440.7" width="24.4" height="24.65" shape-rendering="crispEdges"/><rect fill="#151516" x="927.2" y="440.7" width="12.2" height="24.65" shape-rendering="crispEdges"/><rect fill="#151516" x="939.4" y="440.7" width="12.2" height="24.65" shape-rendering="crispEdges"/><rect fill="#151516" x="951.6" y="440.7" width="12.2" height="24.65" shape-rendering="crispEdges"/><rect fill="#0c0c0d" x="963.8" y="440.7" width="12.2" height="24.65" shape-rendering="crispEdges"/><rect fill="#0c0c0d" x="0" y="465.1" width="12.2" height="24.65" shape-rendering="crispEdges"/><rect fill="#151516" x="12.2" y="465.1" width="12.2" height="24.65" shape-rendering="crispEdges"/><rect fill="#151516" x="24.4" y="465.1" width="12.2" height="24.65" shape-rendering="crispEdges"/><rect fill="#151516" x="36.6" y="465.1" width="902.8" height="24.65" shape-rendering="crispEdges"/><rect fill="#151516" x="939.4" y="465.1" width="12.2" height="24.65" shape-rendering="crispEdges"/><rect fill="#151516" x="951.6" y="465.1" width="12.2" height="24.65" shape-rendering="crispEdges"/><rect fill="#0c0c0d" x="963.8" y="465.1" width="12.2" height="24.65" shape-rendering="crispEdges"/><rect fill="#0c0c0d" x="0" y="489.5" width="12.2" height="24.65" shape-rendering="crispEdges"/><rect fill="#151516" x="12.2" y="489.5" width="12.2" height="24.65" shape-rendering="crispEdges"/><rect fill="#151516" x="24.4" y="489.5" width="927.2" height="24.65" shape-rendering="crispEdges"/><rect fill="#151516" x="951.6" y="489.5" width="12.2" height="24.65" shape-rendering="crispEdges"/><rect fill="#0c0c0d" x="963.8" y="489.5" width="12.2" height="24.65" shape-rendering="crispEdges"/><rect fill="#0c0c0d" x="0" y="513.9" width="12.2" height="24.65" shape-rendering="crispEdges"/><rect fill="#151516" x="12.2" y="513.9" width="12.2" height="24.65" shape-rendering="crispEdges"/><rect fill="#151516" x="24.4" y="513.9" width="927.2" height="24.65" shape-rendering="crispEdges"/><rect fill="#151516" x="951.6" y="513.9" width="12.2" height="24.65" shape-rendering="crispEdges"/><rect fill="#0c0c0d" x="963.8" y="513.9" width="12.2" height="24.65" shape-rendering="crispEdges"/><rect fill="#0c0c0d" x="0" y="538.3" width="12.2" height="24.65" shape-rendering="crispEdges"/><rect fill="#1e1e20" x="12.2" y="538.3" width="24.4" height="24.65" shape-rendering="crispEdges"/><rect fill="#1e1e20" x="36.6" y="538.3" width="756.4" height="24.65" shape-rendering="crispEdges"/><rect fill="#1e1e20" x="793" y="538.3" width="12.2" height="24.65" shape-rendering="crispEdges"/><rect fill="#1e1e20" x="805.2" y="538.3" width="24.4" height="24.65" shape-rendering="crispEdges"/><rect fill="#1e1e20" x="829.6" y="538.3" width="97.6" height="24.65" shape-rendering="crispEdges"/><rect fill="#1e1e20" x="927.2" y="538.3" width="12.2" height="24.65" shape-rendering="crispEdges"/><rect fill="#1e1e20" x="939.4" y="538.3" width="24.4" height="24.65" shape-rendering="crispEdges"/><rect fill="#0c0c0d" x="963.8" y="538.3" width="12.2" height="24.65" shape-rendering="crispEdges"/><rect fill="#0c0c0d" x="0" y="562.7" width="976" height="24.65" shape-rendering="crispEdges"/>
    <g class="terminal-1447567526-matrix">
    <text class="terminal-1447567526-r1" x="976" y="20" textLength="12.2" clip-path="url(#terminal-1447567526-line-0)">
</text><text class="terminal-1447567526-r1" x="976" y="44.4" textLength="12.2" clip-path="url(#terminal-1447567526-line-1)">
</text><text class="terminal-1447567526-r1" x="976" y="68.8" textLength="12.2" clip-path="url(#terminal-1447567526-line-2)">
</text><text class="terminal-1447567526-r2" x="12.2" y="93.2" textLength="12.2" clip-path="url(#terminal-1447567526-line-3)">┏</text><text class="terminal-1447567526-r2" x="24.4" y="93.2" textLength="927.2" clip-path="url(#terminal-1447567526-line-3)">━━━━━━━━━━━━━━━━━━━━━━━━━━━━━━━━━━━━━━━━━━━━━━━━━━━━━━━━━━━━━━━━━━━━━━━━━━━━</text><text class="terminal-1447567526-r2" x="951.6" y="93.2" textLength="12.2" clip-path="url(#terminal-1447567526-line-3)">┓</text><text class="terminal-1447567526-r1" x="976" y="93.2" textLength="12.2" clip-path="url(#terminal-1447567526-line-3)">
</text><text class="terminal-1447567526-r2" x="12.2" y="117.6" textLength="12.2" clip-path="url(#terminal-1447567526-line-4)">┃</text><text class="terminal-1447567526-r2" x="951.6" y="117.6" textLength="12.2" clip-path="url(#terminal-1447567526-line-4)">┃</text><text class="terminal-1447567526-r1" x="976" y="117.6" textLength="12.2" clip-path="url(#terminal-1447567526-line-4)">
</text><text class="terminal-1447567526-r2" x="12.2" y="142" textLength="12.2" clip-path="url(#terminal-1447567526-line-5)">┃</text><text class="terminal-1447567526-r2" x="36.6" y="142" textLength="24.4" clip-path="url(#terminal-1447567526-line-5)">──</text><text class="terminal-1447567526-r2" x="61" y="142" textLength="12.2" clip-path="url(#terminal-1447567526-line-5)">╮</text><text class="terminal-1447567526-r2" x="73.2" y="142" textLength="12.2" clip-path="url(#terminal-1447567526-line-5)">╭</text><text class="terminal-1447567526-r2" x="85.4" y="142" textLength="195.2" clip-path="url(#terminal-1447567526-line-5)">────────────────</text><text class="terminal-1447567526-r2" x="280.6" y="142" textLength="12.2" clip-path="url(#terminal-1447567526-line-5)">╮</text><text class="terminal-1447567526-r2" x="292.8" y="142" textLength="12.2" clip-path="url(#terminal-1447567526-line-5)">╭</text><text class="terminal-1447567526-r2" x="305" y="142" textLength="231.8" clip-path="url(#terminal-1447567526-line-5)">───────────────────</text><text class="terminal-1447567526-r2" x="536.8" y="142" textLength="12.2" clip-path="url(#terminal-1447567526-line-5)">╮</text><text class="terminal-1447567526-r2" x="549" y="142" textLength="12.2" clip-path="url(#terminal-1447567526-line-5)">╭</text><text class="terminal-1447567526-r2" x="561.2" y="142" textLength="158.6" clip-path="url(#terminal-1447567526-line-5)">─────────────</text><text class="terminal-1447567526-r2" x="719.8" y="142" textLength="12.2" clip-path="url(#terminal-1447567526-line-5)">╮</text><text class="terminal-1447567526-r2" x="732" y="142" textLength="12.2" clip-path="url(#terminal-1447567526-line-5)">╭</text><text class="terminal-1447567526-r2" x="744.2" y="142" textLength="183" clip-path="url(#terminal-1447567526-line-5)">───────────────</text><text class="terminal-1447567526-r2" x="927.2" y="142" textLength="12.2" clip-path="url(#terminal-1447567526-line-5)">╮</text><text class="terminal-1447567526-r2" x="951.6" y="142" textLength="12.2" clip-path="url(#terminal-1447567526-line-5)">┃</text><text class="terminal-1447567526-r1" x="976" y="142" textLength="12.2" clip-path="url(#terminal-1447567526-line-5)">
</text><text class="terminal-1447567526-r2" x="12.2" y="166.4" textLength="12.2" clip-path="url(#terminal-1447567526-line-6)">┃</text><text class="terminal-1447567526-r2" x="61" y="166.4" textLength="12.2" clip-path="url(#terminal-1447567526-line-6)">│</text><text class="terminal-1447567526-r2" x="73.2" y="166.4" textLength="12.2" clip-path="url(#terminal-1447567526-line-6)">│</text><text class="terminal-1447567526-r2" x="280.6" y="166.4" textLength="12.2" clip-path="url(#terminal-1447567526-line-6)">│</text><text class="terminal-1447567526-r2" x="292.8" y="166.4" textLength="12.2" clip-path="url(#terminal-1447567526-line-6)">│</text><text class="terminal-1447567526-r2" x="536.8" y="166.4" textLength="12.2" clip-path="url(#terminal-1447567526-line-6)">│</text><text class="terminal-1447567526-r2" x="549" y="166.4" textLength="12.2" clip-path="url(#terminal-1447567526-line-6)">│</text><text class="terminal-1447567526-r2" x="719.8" y="166.4" textLength="12.2" clip-path="url(#terminal-1447567526-line-6)">│</text><text class="terminal-1447567526-r2" x="732" y="166.4" textLength="12.2" clip-path="url(#terminal-1447567526-line-6)">│</text><text class="terminal-1447567526-r2" x="927.2" y="166.4" textLength="12.2" clip-path="url(#terminal-1447567526-line-6)">│</text><text class="terminal-1447567526-r2" x="951.6" y="166.4" textLength="12.2" clip-path="url(#terminal-1447567526-line-6)">┃</text><text class="terminal-1447567526-r1" x="976" y="166.4" textLength="12.2" clip-path="url(#terminal-1447567526-line-6)">
</text><text class="terminal-1447567526-r2" x="12.2" y="190.8" textLength="12.2" clip-path="url(#terminal-1447567526-line-7)">┃</text><text class="terminal-1447567526-r2" x="951.6" y="190.8" textLength="12.2" clip-path="url(#terminal-1447567526-line-7)">┃</text><text class="terminal-1447567526-r1" x="976" y="190.8" textLength="12.2" clip-path="url(#terminal-1447567526-line-7)">
</text><text class="terminal-1447567526-r2" x="12.2" y="215.2" textLength="12.2" clip-path="url(#terminal-1447567526-line-8)">┃</text><text class="terminal-1447567526-r3" x="48.8" y="215.2" textLength="146.4" clip-path="url(#terminal-1447567526-line-8)">Private&#160;Key:</text><text class="terminal-1447567526-r2" x="951.6" y="215.2" textLength="12.2" clip-path="url(#terminal-1447567526-line-8)">┃</text><text class="terminal-1447567526-r1" x="976" y="215.2" textLength="12.2" clip-path="url(#terminal-1447567526-line-8)">
</text><text class="terminal-1447567526-r2" x="12.2" y="239.6" textLength="12.2" clip-path="url(#terminal-1447567526-line-9)">┃</text><text class="terminal-1447567526-r5" x="48.8" y="239.6" textLength="12.2" clip-path="url(#terminal-1447567526-line-9)">╭</text><text class="terminal-1447567526-r5" x="61" y="239.6" textLength="829.6" clip-path="url(#terminal-1447567526-line-9)">────────────────────────────────────────────────────────────────────</text><text class="terminal-1447567526-r5" x="890.6" y="239.6" textLength="12.2" clip-path="url(#terminal-1447567526-line-9)">╮</text><text class="terminal-1447567526-r2" x="951.6" y="239.6" textLength="12.2" clip-path="url(#terminal-1447567526-line-9)">┃</text><text class="terminal-1447567526-r1" x="976" y="239.6" textLength="12.2" clip-path="url(#terminal-1447567526-line-9)">
</text><text class="terminal-1447567526-r2" x="12.2" y="264" textLength="12.2" clip-path="url(#terminal-1447567526-line-10)">┃</text><text class="terminal-1447567526-r5" x="48.8" y="264" textLength="12.2" clip-path="url(#terminal-1447567526-line-10)">│</text><text class="terminal-1447567526-r5" x="890.6" y="264" textLength="12.2" clip-path="url(#terminal-1447567526-line-10)">│</text><text class="terminal-1447567526-r2" x="951.6" y="264" textLength="12.2" clip-path="url(#terminal-1447567526-line-10)">┃</text><text class="terminal-1447567526-r1" x="976" y="264" textLength="12.2" clip-path="url(#terminal-1447567526-line-10)">
</text><text class="terminal-1447567526-r2" x="12.2" y="288.4" textLength="12.2" clip-path="url(#terminal-1447567526-line-11)">┃</text><text class="terminal-1447567526-r5" x="48.8" y="288.4" textLength="12.2" clip-path="url(#terminal-1447567526-line-11)">│</text><text class="terminal-1447567526-r5" x="890.6" y="288.4" textLength="12.2" clip-path="url(#terminal-1447567526-line-11)">│</text><text class="terminal-1447567526-r2" x="951.6" y="288.4" textLength="12.2" clip-path="url(#terminal-1447567526-line-11)">┃</text><text class="terminal-1447567526-r1" x="976" y="288.4" textLength="12.2" clip-path="url(#terminal-1447567526-line-11)">
</text><text class="terminal-1447567526-r2" x="12.2" y="312.8" textLength="12.2" clip-path="url(#terminal-1447567526-line-12)">┃</text><text class="terminal-1447567526-r5" x="48.8" y="312.8" textLength="12.2" clip-path="url(#terminal-1447567526-line-12)">╰</text><text class="terminal-1447567526-r5" x="61" y="312.8" textLength="829.6" clip-path="url(#terminal-1447567526-line-12)">────────────────────────────────────────────────────────────────────</text><text class="terminal-1447567526-r5" x="890.6" y="312.8" textLength="12.2" clip-path="url(#terminal-1447567526-line-12)">╯</text><text class="terminal-1447567526-r2" x="951.6" y="312.8" textLength="12.2" clip-path="url(#terminal-1447567526-line-12)">┃</text><text class="terminal-1447567526-r1" x="976" y="312.8" textLength="12.2" clip-path="url(#terminal-1447567526-line-12)">
</text><text class="terminal-1447567526-r2" x="12.2" y="337.2" textLength="12.2" clip-path="url(#terminal-1447567526-line-13)">┃</text><text class="terminal-1447567526-r3" x="48.8" y="337.2" textLength="183" clip-path="url(#terminal-1447567526-line-13)">Stacks&#160;Address:</text><text class="terminal-1447567526-r2" x="951.6" y="337.2" textLength="12.2" clip-path="url(#terminal-1447567526-line-13)">┃</text><text class="terminal-1447567526-r1" x="976" y="337.2" textLength="12.2" clip-path="url(#terminal-1447567526-line-13)">
</text><text class="terminal-1447567526-r2" x="12.2" y="361.6" textLength="12.2" clip-path="url(#terminal-1447567526-line-14)">┃</text><text class="terminal-1447567526-r2" x="48.8" y="361.6" textLength="12.2" clip-path="url(#terminal-1447567526-line-14)">╭</text><text class="terminal-1447567526-r2" x="61" y="361.6" textLength="829.6" clip-path="url(#terminal-1447567526-line-14)">────────────────────────────────────────────────────────────────────</text><text class="terminal-1447567526-r2" x="890.6" y="361.6" textLength="12.2" clip-path="url(#terminal-1447567526-line-14)">╮</text><text class="terminal-1447567526-r2" x="951.6" y="361.6" textLength="12.2" clip-path="url(#terminal-1447567526-line-14)">┃</text><text class="terminal-1447567526-r1" x="976" y="361.6" textLength="12.2" clip-path="url(#terminal-1447567526-line-14)">
</text><text class="terminal-1447567526-r2" x="12.2" y="386" textLength="12.2" clip-path="url(#terminal-1447567526-line-15)">┃</text><text class="terminal-1447567526-r2" x="48.8" y="386" textLength="12.2" clip-path="url(#terminal-1447567526-line-15)">│</text><text class="terminal-1447567526-r2" x="890.6" y="386" textLength="12.2" clip-path="url(#terminal-1447567526-line-15)">│</text><text class="terminal-1447567526-r2" x="951.6" y="386" textLength="12.2" clip-path="url(#terminal-1447567526-line-15)">┃</text><text class="terminal-1447567526-r1" x="976" y="386" textLength="12.2" clip-path="url(#terminal-1447567526-line-15)">
</text><text class="terminal-1447567526-r2" x="12.2" y="410.4" textLength="12.2" clip-path="url(#terminal-1447567526-line-16)">┃</text><text class="terminal-1447567526-r2" x="48.8" y="410.4" textLength="12.2" clip-path="url(#terminal-1447567526-line-16)">│</text><text class="terminal-1447567526-r2" x="890.6" y="410.4" textLength="12.2" clip-path="url(#terminal-1447567526-line-16)">│</text><text class="terminal-1447567526-r6" x="902.8" y="410.4" textLength="24.4" clip-path="url(#terminal-1447567526-line-16)">▇▇</text><text class="terminal-1447567526-r2" x="951.6" y="410.4" textLength="12.2" clip-path="url(#terminal-1447567526-line-16)">┃</text><text class="terminal-1447567526-r1" x="976" y="410.4" textLength="12.2" clip-path="url(#terminal-1447567526-line-16)">
</text><text class="terminal-1447567526-r2" x="12.2" y="434.8" textLength="12.2" clip-path="url(#terminal-1447567526-line-17)">┃</text><text class="terminal-1447567526-r2" x="48.8" y="434.8" textLength="12.2" clip-path="url(#terminal-1447567526-line-17)">╰</text><text class="terminal-1447567526-r2" x="61" y="434.8" textLength="829.6" clip-path="url(#terminal-1447567526-line-17)">────────────────────────────────────────────────────────────────────</text><text class="terminal-1447567526-r2" x="890.6" y="434.8" textLength="12.2" clip-path="url(#terminal-1447567526-line-17)">╯</text><text class="terminal-1447567526-r2" x="951.6" y="434.8" textLength="12.2" clip-path="url(#terminal-1447567526-line-17)">┃</text><text class="terminal-1447567526-r1" x="976" y="434.8" textLength="12.2" clip-path="url(#terminal-1447567526-line-17)">
</text><text class="terminal-1447567526-r2" x="12.2" y="459.2" textLength="12.2" clip-path="url(#terminal-1447567526-line-18)">┃</text><text class="terminal-1447567526-r2" x="61" y="459.2" textLength="12.2" clip-path="url(#terminal-1447567526-line-18)">╭</text><text class="terminal-1447567526-r2" x="73.2" y="459.2" textLength="170.8" clip-path="url(#terminal-1447567526-line-18)">──────────────</text><text class="terminal-1447567526-r2" x="244" y="459.2" textLength="12.2" clip-path="url(#terminal-1447567526-line-18)">╮</text><text class="terminal-1447567526-r2" x="951.6" y="459.2" textLength="12.2" clip-path="url(#terminal-1447567526-line-18)">┃</text><text class="terminal-1447567526-r1" x="976" y="459.2" textLength="12.2" clip-path="url(#terminal-1447567526-line-18)">
</text><text class="terminal-1447567526-r2" x="12.2" y="483.6" textLength="12.2" clip-path="url(#terminal-1447567526-line-19)">┃</text><text class="terminal-1447567526-r2" x="951.6" y="483.6" textLength="12.2" clip-path="url(#terminal-1447567526-line-19)">┃</text><text class="terminal-1447567526-r1" x="976" y="483.6" textLength="12.2" clip-path="url(#terminal-1447567526-line-19)">
</text><text class="terminal-1447567526-r2" x="12.2" y="508" textLength="12.2" clip-path="url(#terminal-1447567526-line-20)">┃</text><text class="terminal-1447567526-r2" x="951.6" y="508" textLength="12.2" clip-path="url(#terminal-1447567526-line-20)">┃</text><text class="terminal-1447567526-r1" x="976" y="508" textLength="12.2" clip-path="url(#terminal-1447567526-line-20)">
</text><text class="terminal-1447567526-r2" x="12.2" y="532.4" textLength="12.2" clip-path="url(#terminal-1447567526-line-21)">┗</text><text class="terminal-1447567526-r2" x="24.4" y="532.4" textLength="927.2" clip-path="url(#terminal-1447567526-line-21)">━━━━━━━━━━━━━━━━━━━━━━━━━━━━━━━━━━━━━━━━━━━━━━━━━━━━━━━━━━━━━━━━━━━━━━━━━━━━</text><text class="terminal-1447567526-r2" x="951.6" y="532.4" textLength="12.2" clip-path="url(#terminal-1447567526-line-21)">┛</text><text class="terminal-1447567526-r1" x="976" y="532.4" textLength="12.2" clip-path="url(#terminal-1447567526-line-21)">
</text><text class="terminal-1447567526-r7" x="793" y="556.8" textLength="12.2" clip-path="url(#terminal-1447567526-line-22)">▏</text><text class="terminal-1447567526-r8" x="805.2" y="556.8" textLength="24.4" clip-path="url(#terminal-1447567526-line-22)">^p</text><text class="terminal-1447567526-r9" x="829.6" y="556.8" textLength="97.6" clip-path="url(#terminal-1447567526-line-22)">&#160;palette</text><text class="terminal-1447567526-r1" x="976" y="556.8" textLength="12.2" clip-path="url(#terminal-1447567526-line-22)">
</text>
    </g>
    </g>
</svg>
